<svg width="14" height="15" viewBox="0 0 14 15" fill="none" xmlns="http://www.w3.org/2000/svg">
<g id="&#240;&#159;&#166;&#134; icon &#34;date range&#34;">
<path id="Vector" d="M4.08333 6.98731H5.25V8.15397H4.08333V6.98731ZM12.25 4.07064V12.2373C12.25 12.879 11.725 13.404 11.0833 13.404H2.91667C2.26917 13.404 1.75 12.879 1.75 12.2373L1.75583 4.07064C1.75583 3.42897 2.26917 2.90397 2.91667 2.90397H3.5V1.7373H4.66667V2.90397H9.33333V1.7373H10.5V2.90397H11.0833C11.725 2.90397 12.25 3.42897 12.25 4.07064ZM2.91667 5.2373H11.0833V4.07064H2.91667V5.2373ZM11.0833 12.2373V6.40397H2.91667V12.2373H11.0833ZM8.75 8.15397H9.91667V6.98731H8.75V8.15397ZM6.41667 8.15397H7.58333V6.98731H6.41667V8.15397Z" fill="#437273"/>
</g>
</svg>
