<svg width="25" height="24" viewBox="0 0 25 24" fill="none" xmlns="http://www.w3.org/2000/svg">
<g id="SVG">
<g id="Group">
<g id="Group_2">
<path id="Vector" d="M8.44084 17.4371H1.36959C0.689322 17.4371 0.474499 16.9896 0.474499 16.4257V11.3326C0.465549 7.54632 0.895194 5.34438 4.47557 4.89684C7.25861 4.5903 10.0713 4.68677 12.8268 5.18327C17.3739 6.02466 21.2497 8.63833 21.2497 14.7787V17.4013M21.2497 17.4013H13.2565M21.2497 17.4013H24.5526V16.2914M9.21063 7.67163H14.0441C14.1784 7.67163 14.2948 7.83275 14.2948 8.02072V10.6165C14.2948 10.8134 14.1784 10.9656 14.0441 10.9656H9.21063C9.07636 10.9656 8.96 10.8045 8.96 10.6165V8.02072C8.95105 7.86855 9.07636 7.67163 9.21063 7.67163ZM3.16874 7.67163H6.39108C6.48494 7.66179 6.57982 7.67108 6.66999 7.69894C6.76016 7.7268 6.84375 7.77265 6.9157 7.83373C6.98765 7.8948 7.04647 7.96983 7.08861 8.05428C7.13074 8.13872 7.15532 8.23084 7.16086 8.32505V15.7185C7.14709 15.9013 7.06285 16.0717 6.92592 16.1936C6.78899 16.3155 6.61006 16.3794 6.42688 16.372H3.15978C2.97602 16.3818 2.79582 16.3186 2.65837 16.1962C2.52092 16.0739 2.43734 15.9022 2.42581 15.7185V8.32505C2.43734 8.14139 2.52092 7.96971 2.65837 7.84734C2.79582 7.72498 2.97602 7.66183 3.15978 7.67163H3.16874ZM10.8576 14.349C11.5121 14.3514 12.1391 14.6124 12.6019 15.0752C13.0647 15.538 13.3257 16.165 13.3281 16.8195C13.3281 20.0776 8.37819 20.0776 8.37819 16.8195C8.37819 16.1619 8.63941 15.5313 9.10439 15.0663C9.56937 14.6013 10.2 14.3401 10.8576 14.3401V14.349Z" stroke="#3E3E3E" stroke-width="0.895095" stroke-miterlimit="22.93" stroke-linecap="round" stroke-linejoin="round"/>
</g>
</g>
</g>
</svg>
