<svg width="99" height="59" viewBox="0 0 99 59" fill="none" xmlns="http://www.w3.org/2000/svg">
<g id="SVG">
<path id="caravan" d="M32.006 50.6557L4.69534 50.6617C2.06194 50.7227 1.22414 48.9381 1.15515 46.7476V27.1072C1.22913 12.4735 2.74679 3.97249 16.8655 2.24489C27.5621 1.12668 38.3638 1.54956 48.9401 3.5006C66.4861 6.74285 81.4527 16.8275 81.4527 40.5391V50.6477M81.4527 50.6477L50.6018 50.6537M81.4527 50.6477H97.6489V46.2078M34.9604 12.9564H53.6211C54.1459 12.9564 54.5748 13.5683 54.5748 14.3171V24.3148C54.5748 25.0636 54.1459 25.6755 53.6211 25.6755H34.9604C34.4355 25.6755 34.0056 25.0636 34.0056 24.3148V14.3171C34.0056 13.5683 34.4355 12.9564 34.9604 12.9564ZM11.6387 12.9564H24.0879C24.7998 12.9194 25.4976 13.1641 26.0305 13.6377C26.5633 14.1112 26.8883 14.7755 26.9352 15.4868V44.0033C26.8883 44.7147 26.5634 45.3792 26.0306 45.8531C25.4978 46.327 24.8 46.5722 24.0879 46.5357H11.6377C10.9253 46.5732 10.2267 46.3284 9.69354 45.8544C9.16036 45.3803 8.8355 44.7152 8.78939 44.0033V15.4838C8.83549 14.772 9.16041 14.1071 9.69366 13.6334C10.2269 13.1597 10.9255 12.9153 11.6377 12.9534L11.6387 12.9564ZM41.3039 38.7085C42.5586 38.7085 43.801 38.9556 44.9602 39.4358C46.1194 39.916 47.1726 40.6198 48.0598 41.5071C48.947 42.3943 49.6507 43.4477 50.1307 44.6069C50.6108 45.7661 50.8578 47.0086 50.8577 48.2633C50.8577 60.8314 31.7491 60.8314 31.7491 48.2633C31.7491 45.7292 32.7558 43.2989 34.5476 41.507C36.3395 39.7152 38.7698 38.7085 41.3039 38.7085Z" stroke="#446851" stroke-width="1.99954" stroke-miterlimit="22.926" stroke-linecap="round" stroke-linejoin="round"/>
</g>
</svg>
