<svg width="25" height="26" viewBox="0 0 25 26" fill="none" xmlns="http://www.w3.org/2000/svg">
<g id="SVG">
<g id="Group">
<g id="Group_2">
<g id="Group_3">
<path id="Vector" d="M21.1639 25.0186L3.83618 16.865M14.2617 20.1187L21.1639 16.865M3.83618 25.0186L12.5 20.9562" stroke="#3E3E3E" stroke-width="0.962649" stroke-miterlimit="22.93" stroke-linecap="round" stroke-linejoin="round"/>
<g id="Group_4">
<path id="Vector_2" d="M5.9541 11.9363C5.9629 12.6645 6.11505 13.3838 6.40186 14.0531C6.68867 14.7225 7.10453 15.3288 7.62568 15.8375C8.14684 16.3461 8.76308 16.7471 9.43923 17.0176C10.1154 17.288 10.8382 17.4227 11.5663 17.4138" stroke="#3E3E3E" stroke-width="0.962649" stroke-miterlimit="10" stroke-linecap="round" stroke-linejoin="round"/>
<path id="Vector_3" d="M18.3049 11.9363C18.2973 12.6653 18.1461 13.3856 17.8599 14.0561C17.5736 14.7266 17.1579 15.334 16.6367 15.8437C16.1154 16.3534 15.4987 16.7552 14.8219 17.0263C14.1452 17.2973 13.4216 17.4323 12.6926 17.4234" stroke="#3E3E3E" stroke-width="0.962649" stroke-miterlimit="10" stroke-linecap="round" stroke-linejoin="round"/>
<path id="Vector_4" d="M9.32349 14.1311C9.32349 15.9505 10.4498 17.4137 12.1344 17.4137" stroke="#3E3E3E" stroke-width="0.962649" stroke-miterlimit="10" stroke-linecap="round" stroke-linejoin="round"/>
<path id="Vector_5" d="M9.32349 14.1311C9.33871 12.9557 9.8196 11.8345 10.6606 11.0133C11.5016 10.1921 12.6341 9.73815 13.8094 9.751" stroke="#3E3E3E" stroke-width="0.962649" stroke-miterlimit="10" stroke-linecap="round" stroke-linejoin="round"/>
<path id="Vector_6" d="M13.8189 9.7511C12.6926 13.0145 14.9067 13.0145 14.9067 15.2286" stroke="#3E3E3E" stroke-width="0.962649" stroke-miterlimit="10" stroke-linecap="round" stroke-linejoin="round"/>
<path id="Vector_7" d="M5.9541 11.9363C5.9541 7.55622 11.5663 6.4588 9.32337 0.981323" stroke="#3E3E3E" stroke-width="0.962649" stroke-miterlimit="10" stroke-linecap="round" stroke-linejoin="round"/>
<path id="Vector_8" d="M13.8191 7.55622C13.8191 3.92703 11.8071 0.981323 9.32349 0.981323" stroke="#3E3E3E" stroke-width="0.962649" stroke-miterlimit="10" stroke-linecap="round" stroke-linejoin="round"/>
<path id="Vector_9" d="M18.305 11.9362C18.305 8.65359 16.062 8.65359 16.062 5.36133" stroke="#3E3E3E" stroke-width="0.962649" stroke-miterlimit="10" stroke-linecap="round" stroke-linejoin="round"/>
<path id="Vector_10" d="M16.0619 5.36133C14.9067 5.36133 14.9067 7.55617 13.8093 7.55617" stroke="#3E3E3E" stroke-width="0.962649" stroke-miterlimit="10" stroke-linecap="round" stroke-linejoin="round"/>
</g>
</g>
</g>
</g>
</g>
</svg>
