<svg width="25" height="26" viewBox="0 0 25 26" fill="none" xmlns="http://www.w3.org/2000/svg">
<g id="SVG">
<g id="Group">
<g id="Group_2">
<g id="Group_3">
<path id="Vector" d="M3.85449 2.58648C3.85449 2.16061 4.02367 1.75217 4.32481 1.45103C4.62595 1.14989 5.03438 0.980713 5.46026 0.980713" stroke="#3E3E3E" stroke-width="0.961538" stroke-miterlimit="22.93" stroke-linecap="round" stroke-linejoin="round"/>
<path id="Vector_2" d="M18.2784 2.58648C18.2784 2.16061 18.1092 1.75217 17.8081 1.45103C17.5069 1.14989 17.0985 0.980713 16.6726 0.980713" stroke="#3E3E3E" stroke-width="0.961538" stroke-miterlimit="22.93" stroke-linecap="round" stroke-linejoin="round"/>
<path id="Vector_3" d="M3.85449 23.4135C3.85449 23.8393 4.02367 24.2478 4.32481 24.5489C4.62595 24.85 5.03438 25.0192 5.46026 25.0192" stroke="#3E3E3E" stroke-width="0.961538" stroke-miterlimit="22.93" stroke-linecap="round" stroke-linejoin="round"/>
<path id="Vector_4" d="M18.2784 23.4135C18.2784 23.8393 18.1092 24.2478 17.8081 24.5489C17.5069 24.85 17.0985 25.0192 16.6726 25.0192" stroke="#3E3E3E" stroke-width="0.961538" stroke-miterlimit="22.93" stroke-linecap="round" stroke-linejoin="round"/>
<path id="Vector_5" d="M3.85449 2.58643V23.4133" stroke="#3E3E3E" stroke-width="0.961538" stroke-miterlimit="22.93" stroke-linecap="round" stroke-linejoin="round"/>
<path id="Vector_6" d="M5.46045 25.0192H16.672" stroke="#3E3E3E" stroke-width="0.961538" stroke-miterlimit="22.93" stroke-linecap="round" stroke-linejoin="round"/>
<path id="Vector_7" d="M5.46045 0.980713H16.672" stroke="#3E3E3E" stroke-width="0.961538" stroke-miterlimit="22.93" stroke-linecap="round" stroke-linejoin="round"/>
<path id="Vector_8" d="M18.2786 10.5961V15.4038" stroke="#3E3E3E" stroke-width="0.961538" stroke-miterlimit="22.93" stroke-linecap="round" stroke-linejoin="round"/>
<path id="Vector_9" d="M20.3649 14.2018L16.2014 11.798" stroke="#3E3E3E" stroke-width="0.961538" stroke-miterlimit="22.93" stroke-linecap="round" stroke-linejoin="round"/>
<path id="Vector_10" d="M16.2014 14.2018L20.3649 11.798" stroke="#3E3E3E" stroke-width="0.961538" stroke-miterlimit="22.93" stroke-linecap="round" stroke-linejoin="round"/>
<path id="Vector_11" d="M18.2786 2.58643V7.39412" stroke="#3E3E3E" stroke-width="0.961538" stroke-miterlimit="22.93" stroke-linecap="round" stroke-linejoin="round"/>
<path id="Vector_12" d="M18.2786 23.4134V18.6057" stroke="#3E3E3E" stroke-width="0.961538" stroke-miterlimit="22.93" stroke-linecap="round" stroke-linejoin="round"/>
<path id="Vector_13" d="M7.05688 13.798V18.6057" stroke="#3E3E3E" stroke-width="0.961538" stroke-miterlimit="22.93" stroke-linecap="round" stroke-linejoin="round"/>
<path id="Vector_14" d="M7.05688 7.39416V4.18262" stroke="#3E3E3E" stroke-width="0.961538" stroke-miterlimit="22.93" stroke-linecap="round" stroke-linejoin="round"/>
<path id="Vector_15" d="M3.85449 10.5961H13.4699" stroke="#3E3E3E" stroke-width="0.961538" stroke-miterlimit="22.93" stroke-linecap="round" stroke-linejoin="round"/>
</g>
</g>
</g>
</g>
</svg>
