<svg width="125" height="76" viewBox="0 0 125 76" fill="none" xmlns="http://www.w3.org/2000/svg">
<g id="SVG">
<path id="activity_hike" d="M74.2295 45.4764L78.3499 41.4542L80.2395 37.9768L83.1531 35.0874L95.0511 37.176L98.3046 41.3802L99.4444 42.8559L107.497 46.7242L115.796 54.4847L121.695 56.7713L123.762 59.8647M79.4287 39.4686L74.7564 40.0944L68.5075 37.9378L63.1203 38.2708L61.6476 40.6573L59.6249 41.5352L56.8703 42.7589L55.2056 43.4908L50.3944 48.2479M15.1311 16.3979L12.2966 17.1567C11.4108 17.7779 10.7845 18.7032 10.5369 19.7563L11.0558 36.0602C11.018 36.4641 11.0853 36.8709 11.2512 37.2411C11.4171 37.6113 11.676 37.9322 12.0026 38.1728L16.5559 38.5867M46.2231 25.6141L43.2336 58.589M47.3179 13.5474L46.79 19.3733M105.102 68.5331L90.4669 55.9804L81.8413 53.294L78.1299 49.0188L69.6143 47.2281L65.8469 47.2181L61.0987 51.0074L54.8747 52.2512L49.5235 58.568L39.3902 58.7459L35.8908 63.2451L17.3268 62.9091L15.2191 67.6462L4.9008 67.5632L0.971436 74.139M22.383 11.6248C22.8805 12.3933 23.5391 13.0444 24.3132 13.5331C25.0874 14.0219 25.9585 14.3365 26.8662 14.4553C29.2658 14.7002 31.3065 13.7654 32.0374 11.3019C32.485 9.4012 32.6388 7.44317 32.4933 5.49594M31.5835 3.35233C31.5255 3.03439 30.7696 2.49049 30.6016 2.39051C27.6121 0.612844 21.6291 1.19074 21.3171 5.42894C21.3051 5.60691 21.2991 5.81589 21.3021 6.04784M106.095 11.0099H99.5644M113.182 17.2427H101.194M85.6967 21.9488C87.0459 23.5164 88.9033 24.5597 90.944 24.8965C92.9847 25.2332 95.0788 24.8419 96.8601 23.7909C98.6415 22.74 99.9967 21.0963 100.689 19.1473C101.381 17.1983 101.366 15.068 100.646 13.129C99.9266 11.19 98.5483 9.56563 96.7522 8.53999C94.9562 7.51434 92.8567 7.15267 90.821 7.51824C88.7853 7.88381 86.9429 8.95333 85.6159 10.5398C84.289 12.1263 83.562 14.1287 83.562 16.1969M89.4361 17.2427H71.455M74.0626 11.8727H60.6277M81.1844 7.12564H74.6535M21.6971 17.4237C23.5778 19.3683 22.6249 31.4311 17.5037 35.6023M31.2795 18.7055C32.3113 19.6823 32.4893 23.4446 31.5965 27.2748M21.6771 17.2497C21.6771 17.2497 31.0235 17.9866 32.4753 19.0494L37.0916 23.8795L44.5434 20.1422L45.1962 19.3423L48.0238 19.1284L48.8327 19.9862L48.3497 24.4634L36.5547 30.6482L35.6328 30.2203L32.2454 27.0209L31.5685 27.4028L29.8477 35.1184L30.2737 36.3181L38.1334 38.2248C38.8666 38.4946 39.4829 39.0116 39.876 39.6869C40.2691 40.3621 40.4144 41.1532 40.287 41.9241L36.4077 61.3024C35.5248 63.843 29.8727 63.1351 30.3927 61.3444C30.7544 55.9962 31.5147 50.6825 32.6673 45.4474C30.2753 45.1882 27.9106 44.7198 25.6004 44.0477L24.5086 44.5306L15.756 66.0895C14.3463 68.3051 8.74617 67.9372 9.35707 65.8846L14.1313 50.1965L17.4997 35.5993L17.3948 24.5893L13.8433 11.7438C13.7284 11.3267 13.7568 10.8832 13.9242 10.4843C14.0915 10.0854 14.3881 9.7543 14.7662 9.54416C17.7917 8.03645 25.0645 4.53211 28.7889 3.78325C33.5601 2.82143 33.2882 3.47833 33.7601 4.58312C34.232 5.68791 33.2012 5.80688 31.5985 6.51275C27.5691 8.36058 23.6932 10.526 20.0073 12.9885L19.9763 13.5074L21.6831 17.2377L21.6771 17.2497Z" stroke="#446851" stroke-width="1.41677" stroke-miterlimit="22.926" stroke-linecap="round" stroke-linejoin="round"/>
</g>
</svg>
