<svg width="44" height="45" viewBox="0 0 44 45" fill="none" xmlns="http://www.w3.org/2000/svg">
<g id="SVG">
<g id="parking">
<g id="Group 105">
<path id="Path 212" d="M0 1.18213H40.0635C40.6998 1.18213 41.31 1.4349 41.76 1.88483C42.2099 2.33477 42.4627 2.94498 42.4627 3.58128C42.4627 4.21758 42.2099 4.82785 41.76 5.27779C41.31 5.72772 40.6998 5.98049 40.0635 5.98049H0" stroke="black" stroke-width="1.29956" stroke-miterlimit="22.926"/>
<path id="Line 155" d="M10.9574 8.71631V10.7713" stroke="black" stroke-width="1.29956" stroke-miterlimit="22.926"/>
<path id="Line 156" d="M31.5028 8.71631V10.7713" stroke="black" stroke-width="1.29956" stroke-miterlimit="22.926"/>
</g>
<path id="Rectangle 89" d="M33.983 13.5112H8.47827C6.82196 13.5112 5.47925 14.8541 5.47925 16.5105V40.6478C5.47925 42.3042 6.82196 43.6471 8.47827 43.6471H33.983C35.6393 43.6471 36.982 42.3042 36.982 40.6478V16.5105C36.982 14.8541 35.6393 13.5112 33.983 13.5112Z" stroke="black" stroke-width="1.29956" stroke-miterlimit="22.926"/>
<g id="Group 106">
<path id="Line 157" d="M15.0662 18.9897V38.1672" stroke="black" stroke-width="1.29956" stroke-miterlimit="22.926"/>
<path id="Path 213" d="M15.0662 18.9917H21.5731C23.1168 18.992 24.5971 19.6054 25.6886 20.6972C26.78 21.7889 27.3932 23.2695 27.3932 24.8133C27.3932 26.357 26.78 27.8376 25.6885 28.9292C24.597 30.0207 23.1167 30.6339 21.5731 30.6339H15.0662" stroke="black" stroke-width="1.29956" stroke-miterlimit="22.926"/>
</g>
</g>
</g>
</svg>
