<svg width="101" height="65" viewBox="0 0 101 65" fill="none" xmlns="http://www.w3.org/2000/svg">
<g id="SVG">
<path id="cabin" d="M1.78857 38.0928L50.198 1.71436L98.6115 38.0878M91.0722 33.3374V63.6776H76.9426V30.4518M52.5318 30.4518V63.6836H10.0388V31.8876M91.0682 57.0374H76.9695M52.4718 57.0374H10.0388M91.0682 50.3933H76.9695M52.4718 50.3933H10.0388M91.0682 43.7511H76.9695M52.4718 43.7511H38.7931M21.3197 43.7511H10.0388M91.0682 37.1069H76.9695M52.4718 37.1069H38.7931M21.3197 37.1069H10.0388M88.4455 30.4648H11.9526M79.6003 23.8206H20.7968M70.7541 17.1774H29.644M61.91 10.5332H38.4901M21.3197 30.4757V50.4093M38.8021 30.4757V50.4093" stroke="#446851" stroke-width="1.99971" stroke-miterlimit="22.926" stroke-linecap="round" stroke-linejoin="round"/>
</g>
</svg>
