<svg width="25" height="26" viewBox="0 0 25 26" fill="none" xmlns="http://www.w3.org/2000/svg">
<g id="SVG">
<g id="Group">
<g id="Group_2">
<path id="Vector" d="M9.66357 6.30359H22.2725" stroke="#3E3E3E" stroke-width="1.08885" stroke-miterlimit="22.93" stroke-linecap="round" stroke-linejoin="round"/>
<path id="Vector_2" d="M15.968 3.14587V6.30354" stroke="#3E3E3E" stroke-width="1.08885" stroke-miterlimit="22.93" stroke-linecap="round" stroke-linejoin="round"/>
<path id="Vector_3" d="M15.968 9.54834V11.6498" stroke="#3E3E3E" stroke-width="1.08885" stroke-miterlimit="22.93" stroke-linecap="round" stroke-linejoin="round"/>
<path id="Vector_4" d="M15.968 15.2213V17.3228" stroke="#3E3E3E" stroke-width="1.08885" stroke-miterlimit="22.93" stroke-linecap="round" stroke-linejoin="round"/>
<path id="Vector_5" d="M15.968 20.6655V22.767" stroke="#3E3E3E" stroke-width="1.08885" stroke-miterlimit="22.93" stroke-linecap="round" stroke-linejoin="round"/>
<path id="Vector_6" d="M11.7649 9.54834V11.6498" stroke="#3E3E3E" stroke-width="1.08885" stroke-miterlimit="22.93" stroke-linecap="round" stroke-linejoin="round"/>
<path id="Vector_7" d="M11.7649 15.2213V17.3228" stroke="#3E3E3E" stroke-width="1.08885" stroke-miterlimit="22.93" stroke-linecap="round" stroke-linejoin="round"/>
<path id="Vector_8" d="M11.7649 20.6655V22.767" stroke="#3E3E3E" stroke-width="1.08885" stroke-miterlimit="22.93" stroke-linecap="round" stroke-linejoin="round"/>
<path id="Vector_9" d="M20.1709 9.54834V11.6498" stroke="#3E3E3E" stroke-width="1.08885" stroke-miterlimit="22.93" stroke-linecap="round" stroke-linejoin="round"/>
<path id="Vector_10" d="M20.1709 15.2213V17.3228" stroke="#3E3E3E" stroke-width="1.08885" stroke-miterlimit="22.93" stroke-linecap="round" stroke-linejoin="round"/>
<path id="Vector_11" d="M20.1709 20.6655V22.767" stroke="#3E3E3E" stroke-width="1.08885" stroke-miterlimit="22.93" stroke-linecap="round" stroke-linejoin="round"/>
<path id="Vector_12" d="M2.72754 3.14591C2.72754 2.58857 2.94894 2.05405 3.34305 1.65994C3.73715 1.26584 4.27167 1.04443 4.82902 1.04443" stroke="#3E3E3E" stroke-width="1.08885" stroke-miterlimit="22.93" stroke-linecap="round" stroke-linejoin="round"/>
<path id="Vector_13" d="M15.9679 3.14591C15.9679 2.86994 15.9136 2.59668 15.808 2.34171C15.7024 2.08675 15.5476 1.85508 15.3524 1.65994C15.1573 1.4648 14.9256 1.31001 14.6707 1.2044C14.4157 1.09879 14.1424 1.04443 13.8665 1.04443" stroke="#3E3E3E" stroke-width="1.08885" stroke-miterlimit="22.93" stroke-linecap="round" stroke-linejoin="round"/>
<path id="Vector_14" d="M4.8291 1.04443H13.8666" stroke="#3E3E3E" stroke-width="1.08885" stroke-miterlimit="22.93" stroke-linecap="round" stroke-linejoin="round"/>
</g>
</g>
</g>
</svg>
