<svg width="12" height="14" viewBox="0 0 12 14" fill="none" xmlns="http://www.w3.org/2000/svg">
<path d="M4.33333 11.3333C4.13555 11.3333 3.94221 11.392 3.77776 11.5019C3.61331 11.6117 3.48514 11.7679 3.40945 11.9507C3.33377 12.1334 3.31396 12.3344 3.35255 12.5284C3.39113 12.7224 3.48637 12.9006 3.62623 13.0404C3.76608 13.1803 3.94426 13.2755 4.13824 13.3141C4.33222 13.3527 4.53329 13.3329 4.71602 13.2572C4.89874 13.1815 5.05492 13.0534 5.1648 12.8889C5.27468 12.7245 5.33333 12.5311 5.33333 12.3333C5.33333 12.0681 5.22798 11.8138 5.04044 11.6262C4.8529 11.4387 4.59855 11.3333 4.33333 11.3333ZM11.3333 9.33333H3.33333C3.15652 9.33333 2.98695 9.26309 2.86193 9.13807C2.7369 9.01305 2.66667 8.84348 2.66667 8.66667C2.66667 8.48986 2.7369 8.32029 2.86193 8.19526C2.98695 8.07024 3.15652 8 3.33333 8H8.99414C9.42842 7.9986 9.85056 7.8565 10.1973 7.59499C10.544 7.33348 10.7966 6.96666 10.9173 6.54948L11.9743 2.84993C12.0026 2.75071 12.0076 2.64627 11.9887 2.54482C11.9698 2.44336 11.9277 2.34768 11.8656 2.26529C11.8034 2.1829 11.723 2.11605 11.6307 2.07002C11.5383 2.02399 11.4365 2.00002 11.3333 2H3.15938C3.02137 1.61157 2.76696 1.27514 2.43082 1.03654C2.09467 0.797945 1.69314 0.668787 1.28093 0.666666H0.666667C0.489856 0.666666 0.320286 0.736904 0.195262 0.861928C0.0702379 0.986952 0 1.15652 0 1.33333C0 1.51014 0.0702379 1.67971 0.195262 1.80474C0.320286 1.92976 0.489856 2 0.666667 2H1.28093C1.42565 2.00051 1.56631 2.04788 1.68186 2.13502C1.7974 2.22216 1.88161 2.34439 1.92187 2.4834L2.02555 2.84656L2.02571 2.84993L3.11947 6.67806C2.61051 6.73281 2.14192 6.98063 1.81018 7.37048C1.47844 7.76034 1.30881 8.26255 1.33622 8.77371C1.36363 9.28487 1.58598 9.76607 1.95751 10.1182C2.32903 10.4704 2.82144 10.6667 3.33333 10.6667H11.3333C11.5101 10.6667 11.6797 10.5964 11.8047 10.4714C11.9298 10.3464 12 10.1768 12 10C12 9.82319 11.9298 9.65362 11.8047 9.52859C11.6797 9.40357 11.5101 9.33333 11.3333 9.33333ZM10.4495 3.33333L9.63541 6.18294C9.59519 6.32206 9.51096 6.4444 9.39535 6.53161C9.27973 6.61883 9.13896 6.66621 8.99414 6.66667H4.50293L4.33297 6.07186L3.55095 3.33333H10.4495ZM9.66667 11.3333C9.46889 11.3333 9.27555 11.392 9.1111 11.5019C8.94665 11.6117 8.81847 11.7679 8.74279 11.9507C8.6671 12.1334 8.6473 12.3344 8.68588 12.5284C8.72447 12.7224 8.81971 12.9006 8.95956 13.0404C9.09941 13.1803 9.2776 13.2755 9.47158 13.3141C9.66556 13.3527 9.86662 13.3329 10.0493 13.2572C10.2321 13.1815 10.3883 13.0534 10.4981 12.8889C10.608 12.7245 10.6667 12.5311 10.6667 12.3333C10.6667 12.0681 10.5613 11.8138 10.3738 11.6262C10.1862 11.4387 9.93188 11.3333 9.66667 11.3333Z" fill="#4E4E4E"/>
</svg>
