<svg width="17" height="17" viewBox="0 0 17 17" fill="none" xmlns="http://www.w3.org/2000/svg">
<path id="Vector" d="M15.5212 6.13406L10.7247 5.40408L8.58055 0.852135C8.52198 0.727506 8.42564 0.626615 8.30662 0.565289C8.00814 0.410986 7.64543 0.539572 7.49619 0.852135L5.35203 5.40408L0.555543 6.13406C0.423304 6.15384 0.3024 6.21912 0.209833 6.31803C0.0979246 6.43848 0.0362579 6.60053 0.0383832 6.76856C0.0405086 6.9366 0.106252 7.09688 0.221168 7.21418L3.69149 10.7572L2.87161 15.7602C2.85238 15.8766 2.86468 15.9963 2.90711 16.1057C2.94954 16.2151 3.0204 16.3099 3.11166 16.3793C3.20292 16.4488 3.31092 16.49 3.42342 16.4984C3.53593 16.5068 3.64843 16.482 3.74816 16.4269L8.03837 14.0648L12.3285 16.4269C12.4457 16.4922 12.5817 16.5139 12.712 16.4902C13.0407 16.4308 13.2618 16.1044 13.2051 15.7602L12.3852 10.7572L15.8555 7.21418C15.95 7.11724 16.0123 6.99064 16.0312 6.85216C16.0822 6.50597 15.8518 6.18549 15.5212 6.13406Z" fill="#19AD6F"/>
</svg>
