<svg width="42" height="26" viewBox="0 0 42 26" fill="none" xmlns="http://www.w3.org/2000/svg">
<g id="SVG">
<g id="Group">
<g id="Group_2">
<g id="Group_3">
<g id="Group_4">
<path id="Vector" d="M21.0076 11.636C20.3571 12.8063 14.4733 17.8574 9.89038 19.0277H10.5409C11.2348 19.0277 11.9004 19.1918 12.3911 19.4839C12.8819 19.776 13.1575 20.1722 13.1575 20.5853C13.1575 20.9984 12.8819 21.3946 12.3911 21.6867C11.9004 21.9788 11.2348 22.1429 10.5409 22.1429C19.6919 22.1429 20.9928 13.5807 20.9928 13.5807" stroke="#3E3E3E" stroke-width="0.879972" stroke-miterlimit="22.93" stroke-linecap="round" stroke-linejoin="round"/>
</g>
<path id="Vector_2" d="M10.5408 22.1429H5.91353L4.02124 19.0278C4.02124 19.0278 18.3908 8.13372 21.0075 3.85706C23.6538 8.13372 38.0086 19.0278 38.0086 19.0278L36.0424 22.1429H21.0075V11.636" stroke="#3E3E3E" stroke-width="0.879972" stroke-miterlimit="22.93" stroke-linecap="round" stroke-linejoin="round"/>
<g id="Group_5">
<path id="Vector_3" d="M0.739258 19.8109L2.04021 22.1428" stroke="#3E3E3E" stroke-width="0.879972" stroke-miterlimit="22.93" stroke-linecap="round" stroke-linejoin="round"/>
<path id="Vector_4" d="M4.00633 19.0277L1.38965 20.9724" stroke="#3E3E3E" stroke-width="0.879972" stroke-miterlimit="22.93" stroke-linecap="round" stroke-linejoin="round"/>
</g>
<g id="Group_6">
<path id="Vector_5" d="M39.96 22.1428L41.2609 19.8109" stroke="#3E3E3E" stroke-width="0.879972" stroke-miterlimit="22.93" stroke-linecap="round" stroke-linejoin="round"/>
<path id="Vector_6" d="M37.9937 19.0277L40.6103 20.9724" stroke="#3E3E3E" stroke-width="0.879972" stroke-miterlimit="22.93" stroke-linecap="round" stroke-linejoin="round"/>
</g>
</g>
</g>
</g>
</g>
</svg>
