<svg width="25" height="26" viewBox="0 0 25 26" fill="none" xmlns="http://www.w3.org/2000/svg">
<g id="SVG">
<g id="Group">
<g id="Group_2">
<g id="Group_3">
<path id="Vector" d="M22.8565 13.7983C22.8565 17.3198 21.2598 18.5774 18.0774 20.1741" stroke="#3E3E3E" stroke-width="1.09361" stroke-miterlimit="22.93" stroke-linecap="round" stroke-linejoin="round"/>
<path id="Vector_2" d="M18.0774 20.1741L19.6741 24.9532" stroke="#3E3E3E" stroke-width="1.09361" stroke-miterlimit="22.93" stroke-linecap="round" stroke-linejoin="round"/>
<path id="Vector_3" d="M6.92261 20.1741V24.9532" stroke="#3E3E3E" stroke-width="1.09361" stroke-miterlimit="22.93" stroke-linecap="round" stroke-linejoin="round"/>
<path id="Vector_4" d="M6.92265 20.1741L3.74023 13.7983" stroke="#3E3E3E" stroke-width="1.09361" stroke-miterlimit="22.93" stroke-linecap="round" stroke-linejoin="round"/>
<path id="Vector_5" d="M2.14355 13.7983H8.51932" stroke="#3E3E3E" stroke-width="1.09361" stroke-miterlimit="22.93" stroke-linecap="round" stroke-linejoin="round"/>
<path id="Vector_6" d="M2.14355 2.64343V13.7983" stroke="#3E3E3E" stroke-width="1.09361" stroke-miterlimit="22.93" stroke-linecap="round" stroke-linejoin="round"/>
<path id="Vector_7" d="M2.14344 2.68718C2.13741 2.47012 2.17571 2.2541 2.25602 2.05235C2.33632 1.8506 2.45693 1.66734 2.61048 1.5138C2.76402 1.36025 2.94728 1.23964 3.14903 1.15934C3.35078 1.07903 3.5668 1.04073 3.78386 1.04676" stroke="#3E3E3E" stroke-width="1.09361" stroke-miterlimit="22.93" stroke-linecap="round" stroke-linejoin="round"/>
<path id="Vector_8" d="M3.74023 1.04675H6.92265" stroke="#3E3E3E" stroke-width="1.09361" stroke-miterlimit="22.93" stroke-linecap="round" stroke-linejoin="round"/>
<path id="Vector_9" d="M8.51929 13.7983H22.8566" stroke="#3E3E3E" stroke-width="1.09361" stroke-miterlimit="22.93" stroke-linecap="round" stroke-linejoin="round"/>
<path id="Vector_10" d="M22.8564 13.7983V13" stroke="#3E3E3E" stroke-width="1.09361" stroke-miterlimit="22.93" stroke-linecap="round" stroke-linejoin="round"/>
<path id="Vector_11" d="M22.8565 12.9999C22.8481 12.5859 22.6791 12.1914 22.3853 11.8996C22.0915 11.6078 21.6958 11.4416 21.2817 11.436" stroke="#3E3E3E" stroke-width="1.09361" stroke-miterlimit="22.93" stroke-linecap="round" stroke-linejoin="round"/>
<path id="Vector_12" d="M10.9033 13.7983V13" stroke="#3E3E3E" stroke-width="1.09361" stroke-miterlimit="22.93" stroke-linecap="round" stroke-linejoin="round"/>
<path id="Vector_13" d="M10.9033 13C10.9076 12.7903 10.9531 12.5835 11.0373 12.3914C11.1215 12.1993 11.2428 12.0257 11.3941 11.8805C11.5454 11.7353 11.7238 11.6213 11.9192 11.545C12.1146 11.4688 12.3231 11.4318 12.5328 11.4361" stroke="#3E3E3E" stroke-width="1.09361" stroke-miterlimit="22.93" stroke-linecap="round" stroke-linejoin="round"/>
<path id="Vector_14" d="M21.2708 11.4033H12.5" stroke="#3E3E3E" stroke-width="1.09361" stroke-miterlimit="22.93" stroke-linecap="round" stroke-linejoin="round"/>
<path id="Vector_15" d="M6.92261 24.9531H19.6741" stroke="#3E3E3E" stroke-width="1.09361" stroke-miterlimit="22.93" stroke-linecap="round" stroke-linejoin="round"/>
<path id="Vector_16" d="M8.51928 2.68717C8.52513 2.47384 8.48815 2.2615 8.41053 2.06271C8.33291 1.86391 8.21623 1.6827 8.06738 1.52977C7.91853 1.37684 7.74053 1.2553 7.5439 1.17234C7.34728 1.08938 7.13602 1.04667 6.92261 1.04675" stroke="#3E3E3E" stroke-width="1.09361" stroke-miterlimit="22.93" stroke-linecap="round" stroke-linejoin="round"/>
<path id="Vector_17" d="M8.51929 13.7983V2.64343" stroke="#3E3E3E" stroke-width="1.09361" stroke-miterlimit="22.93" stroke-linecap="round" stroke-linejoin="round"/>
</g>
</g>
</g>
</g>
</svg>
