<svg width="123" height="58" viewBox="0 0 123 58" fill="none" xmlns="http://www.w3.org/2000/svg">
<g id="SVG">
<path id="camper" d="M111.963 29.7352L94.0869 29.2213C93.681 29.1438 93.2975 28.9769 92.9641 28.7328C92.6307 28.4886 92.3558 28.1733 92.1594 27.8097L90.3598 19.98C90.2308 19.3382 90.4888 19.0803 91.0027 19.0803L101.677 19.2083M97.0483 15.3594C102.471 19.4852 107.316 24.3187 111.455 29.7312L112.355 30.245C114.808 30.9269 117.147 31.9649 119.299 33.3261C119.915 33.767 120.367 34.3999 120.585 35.1256C122.256 39.8752 121.87 43.854 121.485 48.8595C121.374 49.3373 121.115 49.7682 120.746 50.0911C120.377 50.4141 119.915 50.6127 119.427 50.659L113.768 51.1728H113.639M99.2357 51.3008C80.2022 51.4287 61.0447 51.4287 41.8781 51.3008M27.6015 51.4247H5.73859C3.68007 51.2998 1.88049 50.1441 1.88049 47.8338L2.00946 7.78565C2.00946 5.98618 2.78128 4.96148 4.58186 4.96148H54.0943C55.6062 4.9244 57.1119 4.75244 58.5932 4.44764L66.6914 2.13732C69.0878 1.52267 71.5537 1.22091 74.0276 1.23959H91.3896C98.206 1.23959 100.649 4.06375 105.021 8.2995C106.693 9.84004 107.208 12.7922 105.793 14.4607C105.52 14.8563 105.106 15.1319 104.635 15.2304H78.6576M93.833 4.32067H82.2617C82.176 4.31543 82.0902 4.32843 82.0099 4.35882C81.9296 4.3892 81.8566 4.43628 81.7959 4.49694C81.7351 4.5576 81.6879 4.63047 81.6574 4.71072C81.6269 4.79097 81.6138 4.87678 81.6189 4.96248V9.968C81.6138 10.0537 81.6269 10.1395 81.6574 10.2198C81.6879 10.3 81.7351 10.3729 81.7959 10.4335C81.8566 10.4942 81.9296 10.5413 82.0099 10.5717C82.0902 10.6021 82.176 10.6151 82.2617 10.6098H93.833C93.9187 10.6151 94.0045 10.6021 94.0849 10.5717C94.1652 10.5413 94.2381 10.4942 94.2989 10.4335C94.3596 10.3729 94.4068 10.3 94.4373 10.2198C94.4678 10.1395 94.481 10.0537 94.4759 9.968V4.96248C94.6048 4.5776 94.2189 4.32067 93.833 4.32067ZM47.2779 16.5171H29.9159C29.5827 16.5395 29.2688 16.6819 29.0324 16.9178C28.7961 17.1538 28.6532 17.4675 28.6302 17.8007V27.8097C28.6532 28.1429 28.7961 28.4566 29.0324 28.6926C29.2688 28.9286 29.5827 29.0709 29.9159 29.0933H47.2779C47.6112 29.0709 47.925 28.9286 48.1614 28.6926C48.3978 28.4566 48.5406 28.1429 48.5636 27.8097V17.7977C48.5625 17.4572 48.4267 17.131 48.1857 16.8905C47.9448 16.6499 47.6184 16.5146 47.2779 16.5141V16.5171ZM57.8234 16.5171H65.9215C66.4956 16.5334 67.0417 16.7684 67.4481 17.1741C67.8546 17.5798 68.0907 18.1254 68.108 18.6994V45.6514C68.0907 46.2254 67.8546 46.7711 67.4481 47.1768C67.0417 47.5824 66.4956 47.8175 65.9215 47.8338H57.8234C57.2494 47.8175 56.7032 47.5824 56.2968 47.1768C55.8903 46.7711 55.6543 46.2254 55.6369 45.6514V18.6964C55.6543 18.1224 55.8903 17.5768 56.2968 17.1711C56.7032 16.7654 57.2494 16.5304 57.8234 16.5141V16.5171ZM18.9845 11.2516H6.25347C6.00063 11.2752 5.76644 11.3948 5.59907 11.5858C5.43171 11.7767 5.34389 12.0246 5.35368 12.2783V19.4662C5.35066 19.5852 5.37187 19.7035 5.41602 19.814C5.46017 19.9246 5.52634 20.025 5.6105 20.1091C5.69466 20.1933 5.79506 20.2594 5.90559 20.3036C6.01613 20.3477 6.13449 20.3689 6.25347 20.3659H18.9845C19.1035 20.3689 19.2218 20.3477 19.3324 20.3036C19.4429 20.2594 19.5433 20.1933 19.6275 20.1091C19.7116 20.025 19.7778 19.9246 19.8219 19.814C19.8661 19.7035 19.8873 19.5852 19.8843 19.4662V12.2783C19.9009 12.1503 19.89 12.0201 19.8524 11.8966C19.8149 11.773 19.7514 11.6589 19.6663 11.5618C19.5812 11.4646 19.4763 11.3868 19.3588 11.3333C19.2412 11.2798 19.1136 11.252 18.9845 11.2516ZM106.435 41.8016C107.907 41.8044 109.345 42.2433 110.568 43.0631C111.79 43.8828 112.742 45.0465 113.304 46.4071C113.865 47.7677 114.01 49.2641 113.722 50.7074C113.433 52.1506 112.723 53.4758 111.681 54.5156C110.639 55.5554 109.312 56.263 107.868 56.5491C106.425 56.8353 104.928 56.687 103.569 56.1231C102.209 55.5592 101.047 54.605 100.23 53.381C99.4121 52.157 98.9758 50.7182 98.9758 49.2464C98.979 47.2704 99.7663 45.3766 101.165 43.9807C102.564 42.5848 104.459 41.8011 106.435 41.8016ZM34.6738 41.8016C36.1458 41.8044 37.5838 42.2433 38.8064 43.0631C40.0289 43.8828 40.981 45.0465 41.5424 46.4071C42.1037 47.7677 42.2492 49.2641 41.9603 50.7074C41.6715 52.1506 40.9613 53.4758 39.9195 54.5156C38.8777 55.5554 37.551 56.263 36.1072 56.5491C34.6633 56.8353 33.1671 56.687 31.8074 56.1231C30.4478 55.5592 29.2858 54.605 28.4684 53.381C27.6509 52.157 27.2146 50.7182 27.2146 49.2464C27.2175 47.2704 28.0046 45.3765 29.403 43.9804C30.8014 42.5843 32.6968 41.8003 34.6728 41.8006L34.6738 41.8016Z" stroke="#446851" stroke-width="1.99952" stroke-miterlimit="22.926" stroke-linecap="round"/>
</g>
</svg>
