<svg width="14" height="14" viewBox="0 0 14 14" fill="none" xmlns="http://www.w3.org/2000/svg">
<path d="M1.90842 9.49301C2.83158 10.4175 4.06093 10.9724 5.36489 11.0534C6.66884 11.1343 7.95738 10.7356 8.98775 9.93235L12.5331 13.4777C12.6588 13.5991 12.8272 13.6663 13.002 13.6648C13.1768 13.6633 13.344 13.5932 13.4676 13.4696C13.5912 13.346 13.6614 13.1787 13.6629 13.0039C13.6644 12.8292 13.5972 12.6607 13.4758 12.535L9.93042 8.98968C10.7693 7.91312 11.1659 6.55711 11.0393 5.19819C10.9128 3.83927 10.2726 2.57981 9.24941 1.67666C8.22619 0.773502 6.89698 0.294689 5.53286 0.337866C4.16875 0.381043 2.87248 0.942958 1.90842 1.90901C1.41029 2.4069 1.01513 2.99805 0.745527 3.64869C0.475924 4.29933 0.337158 4.99672 0.337158 5.70101C0.337158 6.4053 0.475924 7.10269 0.745527 7.75334C1.01513 8.40398 1.41029 8.99513 1.90842 9.49301ZM2.85109 2.85301C3.51014 2.19398 4.3773 1.78384 5.30484 1.69248C6.23238 1.60112 7.1629 1.83418 7.93786 2.35196C8.71283 2.86975 9.28429 3.64021 9.55489 4.53209C9.82549 5.42397 9.77847 6.38208 9.42186 7.24319C9.06525 8.10429 8.42111 8.81511 7.59917 9.25454C6.77724 9.69397 5.82837 9.83481 4.91424 9.65308C4.0001 9.47136 3.17725 8.97829 2.58589 8.25791C1.99452 7.53752 1.67123 6.63437 1.67109 5.70235C1.66926 5.17273 1.77262 4.64802 1.97519 4.15867C2.17775 3.66931 2.47547 3.22506 2.85109 2.85168V2.85301Z" fill="#F9F9F9"/>
</svg>
