<svg width="25" height="26" viewBox="0 0 25 26" fill="none" xmlns="http://www.w3.org/2000/svg">
<g id="SVG">
<g id="Group">
<g id="Group_2">
<g id="Group_3">
<path id="Vector" d="M12.5154 22.5591C13.918 22.5591 15.0551 21.4221 15.0551 20.0195C15.0551 18.6169 13.918 17.4799 12.5154 17.4799C11.1129 17.4799 9.97583 18.6169 9.97583 20.0195C9.97583 21.4221 11.1129 22.5591 12.5154 22.5591Z" stroke="#3E3E3E" stroke-width="1.01585" stroke-miterlimit="22.93" stroke-linecap="round" stroke-linejoin="round"/>
<path id="Vector_2" d="M20.0327 13.254C17.9265 11.4953 15.2696 10.5319 12.5256 10.5319C9.78164 10.5319 7.12476 11.4953 5.0185 13.254C4.84451 13.3949 4.7042 13.573 4.60782 13.7751C4.51144 13.9772 4.46143 14.1983 4.46143 14.4222C4.46143 14.6461 4.51144 14.8672 4.60782 15.0693C4.7042 15.2714 4.84451 15.4495 5.0185 15.5904C5.38579 15.9025 5.85206 16.0738 6.33403 16.0738C6.81599 16.0738 7.28226 15.9025 7.64955 15.5904C9.00703 14.4379 10.7348 13.8139 12.5155 13.833C14.296 13.8148 16.0234 14.4387 17.3814 15.5904C17.7487 15.9025 18.2149 16.0738 18.6969 16.0738C19.1789 16.0738 19.6451 15.9025 20.0124 15.5904C20.1864 15.4495 20.3267 15.2714 20.4231 15.0693C20.5195 14.8672 20.5695 14.6461 20.5695 14.4222C20.5695 14.1983 20.5195 13.9772 20.4231 13.7751C20.3267 13.573 20.1864 13.3949 20.0124 13.254H20.0327Z" stroke="#3E3E3E" stroke-width="1.01585" stroke-miterlimit="22.93" stroke-linecap="round" stroke-linejoin="round"/>
<path id="Vector_3" d="M23.9741 7.88009C20.8431 5.01454 16.7496 3.43008 12.5052 3.44084C8.25518 3.42221 4.15372 5.00332 1.01596 7.86993C0.714947 8.1441 0.533537 8.52545 0.510741 8.93197C0.487945 9.3385 0.625584 9.73774 0.894063 10.0438L1.01596 10.2267C1.35413 10.549 1.80337 10.7288 2.27054 10.7288C2.7377 10.7288 3.18694 10.549 3.52511 10.2267C5.96731 7.99882 9.15376 6.76376 12.4595 6.76376C15.7652 6.76376 18.9517 7.99882 21.3939 10.2267C21.732 10.549 22.1813 10.7288 22.6484 10.7288C23.1156 10.7288 23.5648 10.549 23.903 10.2267C24.0653 10.0975 24.2001 9.9372 24.2995 9.75513C24.3989 9.57305 24.4608 9.37293 24.4817 9.16654C24.5025 8.96016 24.4818 8.75169 24.4208 8.55343C24.3598 8.35517 24.2597 8.17113 24.1265 8.01215L23.9741 7.88009Z" stroke="#3E3E3E" stroke-width="1.01585" stroke-miterlimit="22.93" stroke-linecap="round" stroke-linejoin="round"/>
</g>
</g>
</g>
</g>
</svg>
